# xmcd
#
# Track frame offsets:
#	150
#	14905
#	30742
#	43879
#	61806
#	77059
#	96311
#	108490
#	125363
#	136603
#	153123
#	169107
#	185919
#	203276
#	219508
#	239357
#	252919
#	271477
#	288413
#	306005
#	323819
#
# Disc length: 4588 seconds
#
# Revision: 0
# Processed by: cddbd v1.5.2PL0 Copyright (c) Steve Scherf et al.
# Submitted via: audiograbber 1.83.01
#
DISCID=2a11ea15
DTITLE=The Judds - All-Time Greatest Hits
DYEAR=2017
DGENRE=Country
TTITLE0=Mama He's Crazy
TTITLE1=Why Not Me
TTITLE2=Girls Night Out
TTITLE3=Love Is Alive
TTITLE4=Have Mercy
TTITLE5=Grandpa (Tell Me 'Bout The Good Old Days)
TTITLE6=Rockin' With The Rhythm Of The Rain
TTITLE7=Cry Myself To Sleep
TTITLE8=Don't Be Cruel
TTITLE9=I Know Where I'm Going
TTITLE10=Maybe Your Baby's Got The Blues
TTITLE11=Turn It Loose
TTITLE12=Give A Little Love
TTITLE13=Change Of Heart
TTITLE14=Young Love (Strong Love)
TTITLE15=Let Me Tell You About Love
TTITLE16=One Man Woman
TTITLE17=Born To Be Blue (Single Edit)
TTITLE18=Love Can Build A Bridge (Single Edit)
TTITLE19=One Hundred And Two
TTITLE20=Flies On The Butter (You Can't Go Home Again)
EXTD=
EXTT0=
EXTT1=
EXTT2=
EXTT3=
EXTT4=
EXTT5=
EXTT6=
EXTT7=
EXTT8=
EXTT9=
EXTT10=
EXTT11=
EXTT12=
EXTT13=
EXTT14=
EXTT15=
EXTT16=
EXTT17=
EXTT18=
EXTT19=
EXTT20=
PLAYORDER=
